G04*
G04 #@! TF.GenerationSoftware,Altium Limited,Altium Designer,19.0.10 (269)*
G04*
G04 Layer_Color=16711935*
%FSLAX44Y44*%
%MOMM*%
G71*
G01*
G75*
%ADD14C,0.5080*%
G04:AMPARAMS|DCode=17|XSize=1.1mm|YSize=1.35mm|CornerRadius=0.1375mm|HoleSize=0mm|Usage=FLASHONLY|Rotation=90.000|XOffset=0mm|YOffset=0mm|HoleType=Round|Shape=RoundedRectangle|*
%AMROUNDEDRECTD17*
21,1,1.1000,1.0750,0,0,90.0*
21,1,0.8250,1.3500,0,0,90.0*
1,1,0.2750,0.5375,0.4125*
1,1,0.2750,0.5375,-0.4125*
1,1,0.2750,-0.5375,-0.4125*
1,1,0.2750,-0.5375,0.4125*
%
%ADD17ROUNDEDRECTD17*%
G04:AMPARAMS|DCode=21|XSize=1.1mm|YSize=1.35mm|CornerRadius=0.1375mm|HoleSize=0mm|Usage=FLASHONLY|Rotation=0.000|XOffset=0mm|YOffset=0mm|HoleType=Round|Shape=RoundedRectangle|*
%AMROUNDEDRECTD21*
21,1,1.1000,1.0750,0,0,0.0*
21,1,0.8250,1.3500,0,0,0.0*
1,1,0.2750,0.4125,-0.5375*
1,1,0.2750,-0.4125,-0.5375*
1,1,0.2750,-0.4125,0.5375*
1,1,0.2750,0.4125,0.5375*
%
%ADD21ROUNDEDRECTD21*%
G04:AMPARAMS|DCode=24|XSize=2mm|YSize=0.6mm|CornerRadius=0.225mm|HoleSize=0mm|Usage=FLASHONLY|Rotation=270.000|XOffset=0mm|YOffset=0mm|HoleType=Round|Shape=RoundedRectangle|*
%AMROUNDEDRECTD24*
21,1,2.0000,0.1500,0,0,270.0*
21,1,1.5500,0.6000,0,0,270.0*
1,1,0.4500,-0.0750,-0.7750*
1,1,0.4500,-0.0750,0.7750*
1,1,0.4500,0.0750,0.7750*
1,1,0.4500,0.0750,-0.7750*
%
%ADD24ROUNDEDRECTD24*%
G04:AMPARAMS|DCode=25|XSize=0.75mm|YSize=0.3mm|CornerRadius=0.075mm|HoleSize=0mm|Usage=FLASHONLY|Rotation=180.000|XOffset=0mm|YOffset=0mm|HoleType=Round|Shape=RoundedRectangle|*
%AMROUNDEDRECTD25*
21,1,0.7500,0.1500,0,0,180.0*
21,1,0.6000,0.3000,0,0,180.0*
1,1,0.1500,-0.3000,0.0750*
1,1,0.1500,0.3000,0.0750*
1,1,0.1500,0.3000,-0.0750*
1,1,0.1500,-0.3000,-0.0750*
%
%ADD25ROUNDEDRECTD25*%
%ADD26O,4.5000X10.0000*%
%ADD27C,3.2000*%
%ADD28C,2.5000*%
%ADD29C,2.0000*%
G04:AMPARAMS|DCode=30|XSize=8mm|YSize=10mm|CornerRadius=2mm|HoleSize=0mm|Usage=FLASHONLY|Rotation=180.000|XOffset=0mm|YOffset=0mm|HoleType=Round|Shape=RoundedRectangle|*
%AMROUNDEDRECTD30*
21,1,8.0000,6.0000,0,0,180.0*
21,1,4.0000,10.0000,0,0,180.0*
1,1,4.0000,-2.0000,3.0000*
1,1,4.0000,2.0000,3.0000*
1,1,4.0000,2.0000,-3.0000*
1,1,4.0000,-2.0000,-3.0000*
%
%ADD30ROUNDEDRECTD30*%
G04:AMPARAMS|DCode=31|XSize=8mm|YSize=10mm|CornerRadius=2mm|HoleSize=0mm|Usage=FLASHONLY|Rotation=90.000|XOffset=0mm|YOffset=0mm|HoleType=Round|Shape=RoundedRectangle|*
%AMROUNDEDRECTD31*
21,1,8.0000,6.0000,0,0,90.0*
21,1,4.0000,10.0000,0,0,90.0*
1,1,4.0000,3.0000,2.0000*
1,1,4.0000,3.0000,-2.0000*
1,1,4.0000,-3.0000,-2.0000*
1,1,4.0000,-3.0000,2.0000*
%
%ADD31ROUNDEDRECTD31*%
%ADD32C,4.5000*%
%ADD33C,0.8000*%
%ADD34C,0.7000*%
%ADD35C,0.8500*%
D14*
X0Y-1000000D02*
X1320000D01*
Y0D01*
X0D02*
X1320000D01*
X0Y-1000000D02*
Y0D01*
D17*
X238500Y-166500D02*
D03*
Y-146500D02*
D03*
X267500Y-166500D02*
D03*
Y-146500D02*
D03*
D21*
X208700Y-100920D02*
D03*
X188700D02*
D03*
D24*
X199499Y-156267D02*
D03*
D25*
X209000Y-163768D02*
D03*
Y-158768D02*
D03*
Y-153768D02*
D03*
Y-148768D02*
D03*
X190000D02*
D03*
Y-153768D02*
D03*
Y-158768D02*
D03*
Y-163768D02*
D03*
D26*
X152610Y-729516D02*
D03*
Y-916376D02*
D03*
D27*
X583000Y-924956D02*
D03*
X582999Y-779957D02*
D03*
X1269999Y-34001D02*
D03*
X1270000Y-586001D02*
D03*
X52070Y-584710D02*
D03*
X49999Y-34001D02*
D03*
D28*
X75500Y-373500D02*
D03*
Y-424500D02*
D03*
X24500Y-373500D02*
D03*
Y-424500D02*
D03*
X50000Y-399000D02*
D03*
X75500Y-130500D02*
D03*
Y-181500D02*
D03*
X24500Y-130500D02*
D03*
Y-181500D02*
D03*
X50000Y-156000D02*
D03*
X293726Y-797456D02*
D03*
Y-848456D02*
D03*
X242726Y-797456D02*
D03*
Y-848456D02*
D03*
X268226Y-822956D02*
D03*
X744930Y-825866D02*
D03*
Y-876866D02*
D03*
X693930Y-825866D02*
D03*
Y-876866D02*
D03*
X719430Y-851366D02*
D03*
D29*
X1292500Y-124500D02*
D03*
X1247500D02*
D03*
X1292500Y-189500D02*
D03*
X1247500D02*
D03*
X1292500Y-423500D02*
D03*
X1247500D02*
D03*
X1292500Y-488500D02*
D03*
X1247500D02*
D03*
X498500Y-509000D02*
D03*
X423500D02*
D03*
X539399Y-549300D02*
D03*
X513999D02*
D03*
X564799D02*
D03*
X590199D02*
D03*
X640999D02*
D03*
X615599D02*
D03*
X463199Y-574700D02*
D03*
X488599D02*
D03*
X437799D02*
D03*
X412399D02*
D03*
X336199D02*
D03*
X361599D02*
D03*
X259999D02*
D03*
X285399Y-574700D02*
D03*
X310799Y-574700D02*
D03*
X386999D02*
D03*
X539399D02*
D03*
X513999D02*
D03*
X564799D02*
D03*
X590199D02*
D03*
X640999D02*
D03*
X615599D02*
D03*
X386999Y-549300D02*
D03*
X310799D02*
D03*
X285399Y-549300D02*
D03*
X259999Y-549300D02*
D03*
X361599D02*
D03*
X336199D02*
D03*
X412399D02*
D03*
X437799D02*
D03*
X488599D02*
D03*
X463199D02*
D03*
X539284Y-43300D02*
D03*
X513884D02*
D03*
X564684D02*
D03*
X590084D02*
D03*
X640884D02*
D03*
X615484D02*
D03*
X463084Y-68700D02*
D03*
X488484D02*
D03*
X437684D02*
D03*
X412284D02*
D03*
X336084D02*
D03*
X361484D02*
D03*
X259884D02*
D03*
X285284Y-68700D02*
D03*
X310684Y-68700D02*
D03*
X386884D02*
D03*
X539284D02*
D03*
X513884D02*
D03*
X564684D02*
D03*
X590084D02*
D03*
X640884D02*
D03*
X615484D02*
D03*
X386884Y-43300D02*
D03*
X310684D02*
D03*
X285284Y-43300D02*
D03*
X259884Y-43300D02*
D03*
X361484D02*
D03*
X336084D02*
D03*
X412284D02*
D03*
X437684D02*
D03*
X488484D02*
D03*
X463084D02*
D03*
X945684D02*
D03*
X920284D02*
D03*
X971084D02*
D03*
X996484D02*
D03*
X1047284D02*
D03*
X1021884D02*
D03*
X869484Y-68700D02*
D03*
X894884D02*
D03*
X844084D02*
D03*
X818684D02*
D03*
X742484D02*
D03*
X767884D02*
D03*
X666284D02*
D03*
X691684Y-68700D02*
D03*
X717084Y-68700D02*
D03*
X793284D02*
D03*
X945684D02*
D03*
X920284D02*
D03*
X971084D02*
D03*
X996484D02*
D03*
X1047284D02*
D03*
X1021884D02*
D03*
X793284Y-43300D02*
D03*
X717084D02*
D03*
X691684Y-43300D02*
D03*
X666284Y-43300D02*
D03*
X767884D02*
D03*
X742484D02*
D03*
X818684D02*
D03*
X844084D02*
D03*
X894884D02*
D03*
X869484D02*
D03*
X946149Y-549300D02*
D03*
X920749D02*
D03*
X971549D02*
D03*
X996949D02*
D03*
X1047749D02*
D03*
X1022349D02*
D03*
X869949Y-574700D02*
D03*
X895349D02*
D03*
X844549D02*
D03*
X819149D02*
D03*
X742949D02*
D03*
X768349D02*
D03*
X666749D02*
D03*
X692149Y-574700D02*
D03*
X717549Y-574700D02*
D03*
X793749D02*
D03*
X946149D02*
D03*
X920749D02*
D03*
X971549D02*
D03*
X996949D02*
D03*
X1047749D02*
D03*
X1022349D02*
D03*
X793749Y-549300D02*
D03*
X717549D02*
D03*
X692149Y-549300D02*
D03*
X666749Y-549300D02*
D03*
X768349D02*
D03*
X742949D02*
D03*
X819149D02*
D03*
X844549D02*
D03*
X895349D02*
D03*
X869949D02*
D03*
D30*
X599500Y-164000D02*
D03*
X562500D02*
D03*
X979500D02*
D03*
X1016500D02*
D03*
X1013500Y-458000D02*
D03*
X976500D02*
D03*
X559500D02*
D03*
X596500D02*
D03*
X560500Y-311000D02*
D03*
X597500D02*
D03*
X1014500D02*
D03*
X977500D02*
D03*
D31*
X1137000Y-533000D02*
D03*
Y-496000D02*
D03*
Y-79000D02*
D03*
Y-116000D02*
D03*
D32*
X469150Y-780246D02*
D03*
X467880Y-925026D02*
D03*
D33*
X71000Y-779000D02*
D03*
X608500Y-904000D02*
D03*
X271000Y-979000D02*
D03*
X671000D02*
D03*
X33500Y-704000D02*
D03*
X221000Y-929000D02*
D03*
X308500Y-904000D02*
D03*
X83500Y-954000D02*
D03*
X733500Y-804000D02*
D03*
X96000Y-979000D02*
D03*
X283500Y-704000D02*
D03*
X433500Y-854000D02*
D03*
X521000Y-979000D02*
D03*
X71000Y-729000D02*
D03*
X296000Y-779000D02*
D03*
X333500Y-904000D02*
D03*
X683500Y-754000D02*
D03*
X433500Y-904000D02*
D03*
X333500Y-854000D02*
D03*
X633500Y-804000D02*
D03*
X121000Y-679000D02*
D03*
X258500Y-954000D02*
D03*
X721000Y-979000D02*
D03*
X33500Y-754000D02*
D03*
X408500Y-904000D02*
D03*
X71000Y-929000D02*
D03*
X171000Y-779000D02*
D03*
X346000Y-929000D02*
D03*
X433500Y-804000D02*
D03*
X96000Y-929000D02*
D03*
X446000Y-979000D02*
D03*
X308500Y-704000D02*
D03*
X58500Y-804000D02*
D03*
X608500Y-954000D02*
D03*
X271000Y-779000D02*
D03*
X346000Y-879000D02*
D03*
X308500Y-954000D02*
D03*
X83500Y-854000D02*
D03*
X208500Y-904000D02*
D03*
X633500Y-954000D02*
D03*
X21000Y-779000D02*
D03*
X208500Y-754000D02*
D03*
X646000Y-929000D02*
D03*
X558500Y-954000D02*
D03*
X421000Y-879000D02*
D03*
X758500Y-804000D02*
D03*
Y-754000D02*
D03*
X146000Y-979000D02*
D03*
X171000D02*
D03*
X433500Y-954000D02*
D03*
X421000Y-929000D02*
D03*
X471000Y-979000D02*
D03*
X658500Y-954000D02*
D03*
X708500Y-904000D02*
D03*
X21000Y-979000D02*
D03*
X708500Y-754000D02*
D03*
X96000Y-829000D02*
D03*
X271000Y-879000D02*
D03*
X196000Y-679000D02*
D03*
X233500Y-954000D02*
D03*
X746000Y-929000D02*
D03*
X521000Y-729000D02*
D03*
X196000Y-979000D02*
D03*
X483500Y-954000D02*
D03*
X221000Y-979000D02*
D03*
X408500Y-854000D02*
D03*
X533500Y-904000D02*
D03*
X546000Y-779000D02*
D03*
X83500Y-754000D02*
D03*
X283500Y-904000D02*
D03*
X333500Y-804000D02*
D03*
X233500Y-904000D02*
D03*
X296000Y-829000D02*
D03*
X521000Y-779000D02*
D03*
X733500Y-954000D02*
D03*
X208500Y-804000D02*
D03*
X721000Y-729000D02*
D03*
X758500Y-904000D02*
D03*
X183500Y-954000D02*
D03*
X71000Y-679000D02*
D03*
X221000Y-879000D02*
D03*
X408500Y-954000D02*
D03*
X183500Y-704000D02*
D03*
X208500Y-954000D02*
D03*
X183500Y-904000D02*
D03*
X171000Y-679000D02*
D03*
X321000Y-829000D02*
D03*
X33500Y-854000D02*
D03*
X96000Y-729000D02*
D03*
X183500Y-854000D02*
D03*
X408500Y-754000D02*
D03*
X283500D02*
D03*
X721000Y-929000D02*
D03*
X433500Y-754000D02*
D03*
X108500Y-954000D02*
D03*
X21000Y-879000D02*
D03*
X96000Y-679000D02*
D03*
X296000Y-929000D02*
D03*
X108500Y-754000D02*
D03*
X121000Y-879000D02*
D03*
X221000Y-679000D02*
D03*
X58500Y-854000D02*
D03*
X46000Y-879000D02*
D03*
X208500Y-854000D02*
D03*
X33500Y-904000D02*
D03*
X246000Y-929000D02*
D03*
X46000Y-679000D02*
D03*
X533500Y-754000D02*
D03*
X321000Y-679000D02*
D03*
X621000Y-929000D02*
D03*
X346000Y-679000D02*
D03*
X333500Y-954000D02*
D03*
X96000Y-779000D02*
D03*
X683500Y-904000D02*
D03*
X71000Y-829000D02*
D03*
X346000D02*
D03*
X108500Y-904000D02*
D03*
X658500D02*
D03*
X83500Y-804000D02*
D03*
X733500Y-754000D02*
D03*
X496000Y-979000D02*
D03*
X321000Y-929000D02*
D03*
X308500Y-754000D02*
D03*
X46000Y-729000D02*
D03*
X546000D02*
D03*
X258500Y-904000D02*
D03*
X183500Y-754000D02*
D03*
X458500Y-954000D02*
D03*
X21000Y-829000D02*
D03*
X121000Y-729000D02*
D03*
X346000Y-779000D02*
D03*
X683500Y-954000D02*
D03*
X546000Y-979000D02*
D03*
X71000Y-879000D02*
D03*
X671000Y-929000D02*
D03*
X546000D02*
D03*
X558500Y-904000D02*
D03*
X421000Y-729000D02*
D03*
X33500Y-954000D02*
D03*
X108500Y-804000D02*
D03*
X246000Y-679000D02*
D03*
X283500Y-954000D02*
D03*
X46000Y-979000D02*
D03*
X758500Y-954000D02*
D03*
X83500Y-704000D02*
D03*
X696000Y-979000D02*
D03*
X271000Y-929000D02*
D03*
X408500Y-804000D02*
D03*
X508500Y-904000D02*
D03*
X658500Y-804000D02*
D03*
X58500Y-904000D02*
D03*
X508500Y-954000D02*
D03*
X621000Y-979000D02*
D03*
X746000Y-729000D02*
D03*
X121000Y-979000D02*
D03*
X321000D02*
D03*
X421000Y-829000D02*
D03*
X58500Y-704000D02*
D03*
X646000Y-979000D02*
D03*
X496000Y-729000D02*
D03*
X46000Y-779000D02*
D03*
X21000Y-679000D02*
D03*
X296000Y-979000D02*
D03*
X196000Y-779000D02*
D03*
X508500Y-754000D02*
D03*
X296000Y-679000D02*
D03*
X421000Y-979000D02*
D03*
X296000Y-879000D02*
D03*
X246000D02*
D03*
X708500Y-954000D02*
D03*
X533500D02*
D03*
X333500Y-704000D02*
D03*
X121000Y-929000D02*
D03*
X271000Y-679000D02*
D03*
X46000Y-929000D02*
D03*
X696000D02*
D03*
X33500Y-804000D02*
D03*
X58500Y-754000D02*
D03*
X458500Y-854000D02*
D03*
X46000Y-829000D02*
D03*
X446000D02*
D03*
X21000Y-729000D02*
D03*
X696000D02*
D03*
X108500Y-854000D02*
D03*
X421000Y-779000D02*
D03*
X96000Y-879000D02*
D03*
X633500Y-904000D02*
D03*
X196000Y-929000D02*
D03*
X58500Y-954000D02*
D03*
X521000Y-929000D02*
D03*
X346000Y-979000D02*
D03*
X21000Y-929000D02*
D03*
X83500Y-904000D02*
D03*
X321000Y-779000D02*
D03*
Y-879000D02*
D03*
X333500Y-754000D02*
D03*
X71000Y-979000D02*
D03*
X733500Y-904000D02*
D03*
X746000Y-979000D02*
D03*
X246000D02*
D03*
D34*
X153455Y-398500D02*
D03*
X124380Y-411300D02*
D03*
X93370Y-411210D02*
D03*
X163455Y-398500D02*
D03*
X102500Y-143956D02*
D03*
X119738D02*
D03*
X119770Y-168832D02*
D03*
X102500Y-168848D02*
D03*
X124455Y-398500D02*
D03*
Y-385500D02*
D03*
X144122Y-150560D02*
D03*
Y-162244D02*
D03*
X613378Y-857200D02*
D03*
Y-845516D02*
D03*
X637762Y-838912D02*
D03*
X655000D02*
D03*
Y-863804D02*
D03*
X637730Y-863788D02*
D03*
X115270Y-822956D02*
D03*
X125270D02*
D03*
X154270Y-835956D02*
D03*
Y-822956D02*
D03*
Y-809956D02*
D03*
X186970Y-810256D02*
D03*
D35*
X247060Y-371200D02*
D03*
X443810Y-380000D02*
D03*
X388500Y-195500D02*
D03*
X427500Y-195000D02*
D03*
X299500Y-247500D02*
D03*
X301500Y-230500D02*
D03*
X244499Y-282000D02*
D03*
X373000Y-354500D02*
D03*
X311000Y-410500D02*
D03*
X310800Y-390500D02*
D03*
X285750Y-166500D02*
D03*
X286000Y-146500D02*
D03*
X202000Y-379000D02*
D03*
X172000Y-150000D02*
D03*
Y-162500D02*
D03*
M02*
