G04*
G04 #@! TF.GenerationSoftware,Altium Limited,Altium Designer,19.0.10 (269)*
G04*
G04 Layer_Color=65535*
%FSLAX44Y44*%
%MOMM*%
G71*
G01*
G75*
%ADD10C,0.2540*%
%ADD11C,0.3000*%
%ADD12C,0.2000*%
%ADD13C,0.1500*%
%ADD14C,0.5080*%
%ADD15C,0.1524*%
G36*
X246029Y-588670D02*
Y-578510D01*
X256189Y-588670D01*
X246029Y-588670D01*
D02*
G37*
G36*
X652779D02*
Y-578510D01*
X662939Y-588670D01*
X652779Y-588670D01*
D02*
G37*
G36*
X245914Y-82670D02*
Y-72510D01*
X256074Y-82670D01*
X245914Y-82670D01*
D02*
G37*
G36*
X652314D02*
Y-72510D01*
X662474Y-82670D01*
X652314Y-82670D01*
D02*
G37*
D10*
X397050Y-253000D02*
G03*
X397050Y-253000I-1000J0D01*
G01*
X19500Y-530105D02*
Y-540262D01*
X24578Y-545340D01*
X29657Y-540262D01*
Y-530105D01*
X34735Y-545340D02*
X39813D01*
X37274D01*
Y-530105D01*
X34735Y-532644D01*
X47431Y-545340D02*
Y-542801D01*
X49970D01*
Y-545340D01*
X47431D01*
X60127Y-532644D02*
X62666Y-530105D01*
X67744D01*
X70284Y-532644D01*
Y-542801D01*
X67744Y-545340D01*
X62666D01*
X60127Y-542801D01*
Y-532644D01*
X17500Y-514500D02*
X22578D01*
X20039D01*
Y-504343D01*
X17500D01*
X30196Y-514500D02*
Y-504343D01*
X37813D01*
X40353Y-506883D01*
Y-514500D01*
X47970Y-501804D02*
Y-504343D01*
X45431D01*
X50509D01*
X47970D01*
Y-511961D01*
X50509Y-514500D01*
X65744D02*
X60666D01*
X58127Y-511961D01*
Y-506883D01*
X60666Y-504343D01*
X65744D01*
X68284Y-506883D01*
Y-509422D01*
X58127D01*
X73362Y-504343D02*
Y-514500D01*
Y-509422D01*
X75901Y-506883D01*
X78440Y-504343D01*
X80979D01*
X91136Y-514500D02*
Y-501804D01*
Y-506883D01*
X88597D01*
X93675D01*
X91136D01*
Y-501804D01*
X93675Y-499265D01*
X103832Y-504343D02*
X108910D01*
X111450Y-506883D01*
Y-514500D01*
X103832D01*
X101293Y-511961D01*
X103832Y-509422D01*
X111450D01*
X126685Y-504343D02*
X119067D01*
X116528Y-506883D01*
Y-511961D01*
X119067Y-514500D01*
X126685D01*
X139381D02*
X134302D01*
X131763Y-511961D01*
Y-506883D01*
X134302Y-504343D01*
X139381D01*
X141920Y-506883D01*
Y-509422D01*
X131763D01*
X162233Y-499265D02*
Y-514500D01*
X169851D01*
X172390Y-511961D01*
Y-509422D01*
Y-506883D01*
X169851Y-504343D01*
X162233D01*
X180007Y-514500D02*
X185086D01*
X187625Y-511961D01*
Y-506883D01*
X185086Y-504343D01*
X180007D01*
X177468Y-506883D01*
Y-511961D01*
X180007Y-514500D01*
X195243Y-504343D02*
X200321D01*
X202860Y-506883D01*
Y-514500D01*
X195243D01*
X192703Y-511961D01*
X195243Y-509422D01*
X202860D01*
X207938Y-504343D02*
Y-514500D01*
Y-509422D01*
X210478Y-506883D01*
X213017Y-504343D01*
X215556D01*
X233330Y-499265D02*
Y-514500D01*
X225713D01*
X223173Y-511961D01*
Y-506883D01*
X225713Y-504343D01*
X233330D01*
X29157Y-476804D02*
X26618Y-474265D01*
X21539D01*
X19000Y-476804D01*
Y-486961D01*
X21539Y-489500D01*
X26618D01*
X29157Y-486961D01*
X34235Y-474265D02*
Y-489500D01*
Y-481883D01*
X44392D01*
Y-474265D01*
Y-489500D01*
X59627Y-474265D02*
X49470D01*
Y-489500D01*
X59627D01*
X49470Y-481883D02*
X54549D01*
X74862Y-474265D02*
X69784D01*
X72323D01*
Y-486961D01*
X69784Y-489500D01*
X67244D01*
X64705Y-486961D01*
X213223Y-699783D02*
X210683Y-697244D01*
X205605D01*
X203066Y-699783D01*
Y-709940D01*
X205605Y-712479D01*
X210683D01*
X213223Y-709940D01*
X218301Y-697244D02*
Y-712479D01*
Y-704862D01*
X228458D01*
Y-697244D01*
Y-712479D01*
X243693Y-697244D02*
X233536D01*
Y-712479D01*
X243693D01*
X233536Y-704862D02*
X238615D01*
X258928Y-697244D02*
X253850D01*
X256389D01*
Y-709940D01*
X253850Y-712479D01*
X251310D01*
X248771Y-709940D01*
X203262Y-727940D02*
Y-743175D01*
X213419D01*
X218497D02*
Y-727940D01*
X226115D01*
X228654Y-730479D01*
Y-735557D01*
X226115Y-738097D01*
X218497D01*
X233732Y-727940D02*
Y-743175D01*
X241350D01*
X243889Y-740636D01*
Y-730479D01*
X241350Y-727940D01*
X233732D01*
X248967Y-743175D02*
Y-733018D01*
X254046Y-727940D01*
X259124Y-733018D01*
Y-743175D01*
Y-735557D01*
X248967D01*
X279437Y-727940D02*
Y-743175D01*
X287055D01*
X289594Y-740636D01*
Y-738097D01*
X287055Y-735557D01*
X279437D01*
X287055D01*
X289594Y-733018D01*
Y-730479D01*
X287055Y-727940D01*
X279437D01*
X297212Y-733018D02*
X302290D01*
X304829Y-735557D01*
Y-743175D01*
X297212D01*
X294672Y-740636D01*
X297212Y-738097D01*
X304829D01*
X309907Y-743175D02*
X314986D01*
X312447D01*
Y-727940D01*
X309907D01*
X322603Y-733018D02*
Y-740636D01*
X325143Y-743175D01*
X332760D01*
Y-733018D01*
X337839Y-743175D02*
Y-733018D01*
X345456D01*
X347995Y-735557D01*
Y-743175D01*
X622436Y-734289D02*
X619897Y-731750D01*
X614818D01*
X612279Y-734289D01*
Y-744446D01*
X614818Y-746985D01*
X619897D01*
X622436Y-744446D01*
X627514Y-731750D02*
Y-746985D01*
Y-739368D01*
X637671D01*
Y-731750D01*
Y-746985D01*
X652906Y-731750D02*
X642749D01*
Y-746985D01*
X652906D01*
X642749Y-739368D02*
X647828D01*
X668141Y-731750D02*
X663063D01*
X665602D01*
Y-744446D01*
X663063Y-746985D01*
X660523D01*
X657984Y-744446D01*
X613780Y-765522D02*
Y-780757D01*
X623937D01*
X636633Y-765522D02*
X631554D01*
X629015Y-768061D01*
Y-778218D01*
X631554Y-780757D01*
X636633D01*
X639172Y-778218D01*
Y-768061D01*
X636633Y-765522D01*
X651868D02*
X646789D01*
X644250Y-768061D01*
Y-778218D01*
X646789Y-780757D01*
X651868D01*
X654407Y-778218D01*
Y-768061D01*
X651868Y-765522D01*
X659485Y-780757D02*
Y-765522D01*
X667103D01*
X669642Y-768061D01*
Y-773139D01*
X667103Y-775679D01*
X659485D01*
X689955Y-765522D02*
Y-780757D01*
X697573D01*
X700112Y-778218D01*
Y-775679D01*
X697573Y-773139D01*
X689955D01*
X697573D01*
X700112Y-770600D01*
Y-768061D01*
X697573Y-765522D01*
X689955D01*
X707730Y-770600D02*
X712808D01*
X715347Y-773139D01*
Y-780757D01*
X707730D01*
X705190Y-778218D01*
X707730Y-775679D01*
X715347D01*
X720425Y-780757D02*
X725504D01*
X722965D01*
Y-765522D01*
X720425D01*
X733121Y-770600D02*
Y-778218D01*
X735661Y-780757D01*
X743278D01*
Y-770600D01*
X748356Y-780757D02*
Y-770600D01*
X755974D01*
X758513Y-773139D01*
Y-780757D01*
X118270Y-782221D02*
X128427D01*
X123348D01*
Y-797456D01*
X133505D02*
X138583D01*
X136044D01*
Y-782221D01*
X133505Y-784760D01*
X364765Y-254000D02*
X377461D01*
X380000Y-251461D01*
Y-246383D01*
X377461Y-243843D01*
X364765D01*
X367304Y-238765D02*
X364765Y-236226D01*
Y-231147D01*
X367304Y-228608D01*
X369843D01*
X372383Y-231147D01*
Y-233687D01*
Y-231147D01*
X374922Y-228608D01*
X377461D01*
X380000Y-231147D01*
Y-236226D01*
X377461Y-238765D01*
X272500Y-190000D02*
X257265D01*
Y-182383D01*
X259804Y-179843D01*
X264883D01*
X267422Y-182383D01*
Y-190000D01*
Y-184922D02*
X272500Y-179843D01*
X257265Y-164608D02*
Y-174765D01*
X264883D01*
X262343Y-169687D01*
Y-167147D01*
X264883Y-164608D01*
X269961D01*
X272500Y-167147D01*
Y-172226D01*
X269961Y-174765D01*
X362650Y-395500D02*
X347415D01*
Y-387882D01*
X349954Y-385343D01*
X355033D01*
X357572Y-387882D01*
Y-395500D01*
Y-390422D02*
X362650Y-385343D01*
X349954Y-380265D02*
X347415Y-377726D01*
Y-372647D01*
X349954Y-370108D01*
X352493D01*
X355033Y-372647D01*
Y-375187D01*
Y-372647D01*
X357572Y-370108D01*
X360111D01*
X362650Y-372647D01*
Y-377726D01*
X360111Y-380265D01*
X472000Y-394500D02*
X456765D01*
Y-386883D01*
X459304Y-384343D01*
X464383D01*
X466922Y-386883D01*
Y-394500D01*
Y-389422D02*
X472000Y-384343D01*
Y-369108D02*
Y-379265D01*
X461843Y-369108D01*
X459304D01*
X456765Y-371647D01*
Y-376726D01*
X459304Y-379265D01*
X435000Y-394500D02*
X419765D01*
Y-386883D01*
X422304Y-384343D01*
X427383D01*
X429922Y-386883D01*
Y-394500D01*
Y-389422D02*
X435000Y-384343D01*
Y-379265D02*
Y-374187D01*
Y-376726D01*
X419765D01*
X422304Y-379265D01*
X229264Y-252500D02*
X241960D01*
X244499Y-249961D01*
Y-244883D01*
X241960Y-242343D01*
X229264D01*
X244499Y-229647D02*
X229264D01*
X236882Y-237265D01*
Y-227108D01*
X104503Y-132500D02*
Y-122343D01*
Y-127422D01*
X119738D01*
Y-109647D02*
X104503D01*
X112121Y-117265D01*
Y-107108D01*
X100265Y-373000D02*
Y-362843D01*
Y-367922D01*
X115500D01*
X102804Y-357765D02*
X100265Y-355226D01*
Y-350147D01*
X102804Y-347608D01*
X105343D01*
X107882Y-350147D01*
Y-352687D01*
Y-350147D01*
X110422Y-347608D01*
X112961D01*
X115500Y-350147D01*
Y-355226D01*
X112961Y-357765D01*
X273000Y-355000D02*
X257765D01*
Y-347383D01*
X260304Y-344843D01*
X265382D01*
X267922Y-347383D01*
Y-355000D01*
Y-349922D02*
X273000Y-344843D01*
Y-339765D02*
Y-334687D01*
Y-337226D01*
X257765D01*
X260304Y-339765D01*
X273000Y-327069D02*
Y-321991D01*
Y-324530D01*
X257765D01*
X260304Y-327069D01*
X311500Y-359500D02*
X296265D01*
Y-351883D01*
X298804Y-349343D01*
X303883D01*
X306422Y-351883D01*
Y-359500D01*
Y-354422D02*
X311500Y-349343D01*
Y-344265D02*
Y-339187D01*
Y-341726D01*
X296265D01*
X298804Y-344265D01*
Y-331569D02*
X296265Y-329030D01*
Y-323951D01*
X298804Y-321412D01*
X308961D01*
X311500Y-323951D01*
Y-329030D01*
X308961Y-331569D01*
X298804D01*
X571000Y-974956D02*
Y-959721D01*
X576078Y-964799D01*
X581157Y-959721D01*
Y-974956D01*
X586235Y-972417D02*
X588774Y-974956D01*
X593853D01*
X596392Y-972417D01*
Y-962260D01*
X593853Y-959721D01*
X588774D01*
X586235Y-962260D01*
Y-964799D01*
X588774Y-967338D01*
X596392D01*
X562000Y-745956D02*
Y-730721D01*
X567078Y-735799D01*
X572157Y-730721D01*
Y-745956D01*
X577235D02*
X582313D01*
X579774D01*
Y-730721D01*
X577235Y-733260D01*
X589931D02*
X592470Y-730721D01*
X597548D01*
X600088Y-733260D01*
Y-743417D01*
X597548Y-745956D01*
X592470D01*
X589931Y-743417D01*
Y-733260D01*
X219145Y-438290D02*
X231841D01*
X234380Y-435751D01*
Y-430672D01*
X231841Y-428133D01*
X219145D01*
X234380Y-423055D02*
Y-417977D01*
Y-420516D01*
X219145D01*
X221684Y-423055D01*
X153000Y-208000D02*
X137765D01*
Y-200382D01*
X140304Y-197843D01*
X145382D01*
X147922Y-200382D01*
Y-208000D01*
Y-202922D02*
X153000Y-197843D01*
X140304Y-192765D02*
X137765Y-190226D01*
Y-185147D01*
X140304Y-182608D01*
X142843D01*
X145382Y-185147D01*
X147922Y-182608D01*
X150461D01*
X153000Y-185147D01*
Y-190226D01*
X150461Y-192765D01*
X147922D01*
X145382Y-190226D01*
X142843Y-192765D01*
X140304D01*
X145382Y-190226D02*
Y-185147D01*
X172500Y-450500D02*
X157265D01*
Y-442882D01*
X159804Y-440343D01*
X164883D01*
X167422Y-442882D01*
Y-450500D01*
Y-445422D02*
X172500Y-440343D01*
X157265Y-435265D02*
Y-425108D01*
X159804D01*
X169961Y-435265D01*
X172500D01*
X17265Y-100343D02*
Y-105422D01*
Y-102882D01*
X29961D01*
X32500Y-105422D01*
Y-107961D01*
X29961Y-110500D01*
X32500Y-87647D02*
X17265D01*
X24883Y-95265D01*
Y-85108D01*
X14195Y-346843D02*
Y-351922D01*
Y-349383D01*
X26891D01*
X29430Y-351922D01*
Y-354461D01*
X26891Y-357000D01*
X16734Y-341765D02*
X14195Y-339226D01*
Y-334147D01*
X16734Y-331608D01*
X19273D01*
X21813Y-334147D01*
Y-336687D01*
Y-334147D01*
X24352Y-331608D01*
X26891D01*
X29430Y-334147D01*
Y-339226D01*
X26891Y-341765D01*
X694154Y-790538D02*
X689075D01*
X691615D01*
Y-803234D01*
X689075Y-805773D01*
X686536D01*
X683997Y-803234D01*
X709389Y-805773D02*
X699232D01*
X709389Y-795616D01*
Y-793077D01*
X706850Y-790538D01*
X701771D01*
X699232Y-793077D01*
X242950Y-762128D02*
X237871D01*
X240410D01*
Y-774824D01*
X237871Y-777363D01*
X235332D01*
X232793Y-774824D01*
X248028Y-777363D02*
X253106D01*
X250567D01*
Y-762128D01*
X248028Y-764667D01*
X160304Y-210843D02*
X157765Y-213382D01*
Y-218461D01*
X160304Y-221000D01*
X170461D01*
X173000Y-218461D01*
Y-213382D01*
X170461Y-210843D01*
X173000Y-205765D02*
Y-200687D01*
Y-203226D01*
X157765D01*
X160304Y-205765D01*
Y-193069D02*
X157765Y-190530D01*
Y-185452D01*
X160304Y-182912D01*
X170461D01*
X173000Y-185452D01*
Y-190530D01*
X170461Y-193069D01*
X160304D01*
X160804Y-119843D02*
X158265Y-122382D01*
Y-127461D01*
X160804Y-130000D01*
X170961D01*
X173500Y-127461D01*
Y-122382D01*
X170961Y-119843D01*
Y-114765D02*
X173500Y-112226D01*
Y-107147D01*
X170961Y-104608D01*
X160804D01*
X158265Y-107147D01*
Y-112226D01*
X160804Y-114765D01*
X163343D01*
X165882Y-112226D01*
Y-104608D01*
X172304Y-360343D02*
X169765Y-362882D01*
Y-367961D01*
X172304Y-370500D01*
X182461D01*
X185000Y-367961D01*
Y-362882D01*
X182461Y-360343D01*
X172304Y-355265D02*
X169765Y-352726D01*
Y-347647D01*
X172304Y-345108D01*
X174843D01*
X177383Y-347647D01*
X179922Y-345108D01*
X182461D01*
X185000Y-347647D01*
Y-352726D01*
X182461Y-355265D01*
X179922D01*
X177383Y-352726D01*
X174843Y-355265D01*
X172304D01*
X177383Y-352726D02*
Y-347647D01*
X182804Y-441843D02*
X180265Y-444383D01*
Y-449461D01*
X182804Y-452000D01*
X192961D01*
X195500Y-449461D01*
Y-444383D01*
X192961Y-441843D01*
X180265Y-436765D02*
Y-426608D01*
X182804D01*
X192961Y-436765D01*
X195500D01*
X221804Y-480843D02*
X219265Y-483382D01*
Y-488461D01*
X221804Y-491000D01*
X231961D01*
X234500Y-488461D01*
Y-483382D01*
X231961Y-480843D01*
X219265Y-465608D02*
Y-475765D01*
X226882D01*
X224343Y-470687D01*
Y-468147D01*
X226882Y-465608D01*
X231961D01*
X234500Y-468147D01*
Y-473226D01*
X231961Y-475765D01*
X258304Y-437343D02*
X255765Y-439883D01*
Y-444961D01*
X258304Y-447500D01*
X268461D01*
X271000Y-444961D01*
Y-439883D01*
X268461Y-437343D01*
X271000Y-422108D02*
Y-432265D01*
X260843Y-422108D01*
X258304D01*
X255765Y-424647D01*
Y-429726D01*
X258304Y-432265D01*
X288804Y-429843D02*
X286265Y-432383D01*
Y-437461D01*
X288804Y-440000D01*
X298961D01*
X301500Y-437461D01*
Y-432383D01*
X298961Y-429843D01*
X301500Y-424765D02*
Y-419687D01*
Y-422226D01*
X286265D01*
X288804Y-424765D01*
X621902Y-816817D02*
X632059D01*
X626980D01*
Y-832052D01*
X647294D02*
X637137D01*
X647294Y-821895D01*
Y-819356D01*
X644755Y-816817D01*
X639676D01*
X637137Y-819356D01*
X1240304Y-97843D02*
X1237765Y-100382D01*
Y-105461D01*
X1240304Y-108000D01*
X1242843D01*
X1245383Y-105461D01*
Y-100382D01*
X1247922Y-97843D01*
X1250461D01*
X1253000Y-100382D01*
Y-105461D01*
X1250461Y-108000D01*
X1253000Y-82608D02*
Y-92765D01*
X1242843Y-82608D01*
X1240304D01*
X1237765Y-85147D01*
Y-90226D01*
X1240304Y-92765D01*
Y-396843D02*
X1237765Y-399383D01*
Y-404461D01*
X1240304Y-407000D01*
X1242843D01*
X1245383Y-404461D01*
Y-399383D01*
X1247922Y-396843D01*
X1250461D01*
X1253000Y-399383D01*
Y-404461D01*
X1250461Y-407000D01*
X1253000Y-391765D02*
Y-386687D01*
Y-389226D01*
X1237765D01*
X1240304Y-391765D01*
X439765Y-492000D02*
X455000D01*
Y-484383D01*
X452461Y-481843D01*
X442304D01*
X439765Y-484383D01*
Y-492000D01*
X455000Y-476765D02*
Y-471687D01*
Y-474226D01*
X439765D01*
X442304Y-476765D01*
X570000Y-809631D02*
X580157D01*
Y-812170D01*
X570000Y-822327D01*
Y-824866D01*
X580157D01*
X592853D02*
Y-809631D01*
X585235Y-817248D01*
X595392D01*
X534000Y-877721D02*
X544157D01*
Y-880260D01*
X534000Y-890417D01*
Y-892956D01*
X544157D01*
X549235Y-880260D02*
X551774Y-877721D01*
X556853D01*
X559392Y-880260D01*
Y-882799D01*
X556853Y-885338D01*
X554313D01*
X556853D01*
X559392Y-887878D01*
Y-890417D01*
X556853Y-892956D01*
X551774D01*
X549235Y-890417D01*
X535000Y-808101D02*
X545157D01*
Y-810640D01*
X535000Y-820797D01*
Y-823336D01*
X545157D01*
X560392D02*
X550235D01*
X560392Y-813179D01*
Y-810640D01*
X557853Y-808101D01*
X552774D01*
X550235Y-810640D01*
X503562Y-808721D02*
X513719D01*
Y-811260D01*
X503562Y-821417D01*
Y-823956D01*
X513719D01*
X518797D02*
X523875D01*
X521336D01*
Y-808721D01*
X518797Y-811260D01*
X208500Y-312500D02*
X193265D01*
Y-304883D01*
X195804Y-302343D01*
X200882D01*
X203422Y-304883D01*
Y-312500D01*
Y-307422D02*
X208500Y-302343D01*
X193265Y-287108D02*
X195804Y-292187D01*
X200882Y-297265D01*
X205961D01*
X208500Y-294726D01*
Y-289647D01*
X205961Y-287108D01*
X203422D01*
X200882Y-289647D01*
Y-297265D01*
X398000Y-393500D02*
X382765D01*
Y-385882D01*
X385304Y-383343D01*
X390382D01*
X392922Y-385882D01*
Y-393500D01*
Y-388422D02*
X398000Y-383343D01*
Y-370647D02*
X382765D01*
X390382Y-378265D01*
Y-368108D01*
X181110Y-893376D02*
Y-878141D01*
X186188Y-883219D01*
X191267Y-878141D01*
Y-893376D01*
X203963D02*
Y-878141D01*
X196345Y-885759D01*
X206502D01*
X97110Y-704516D02*
Y-689281D01*
X102188Y-694359D01*
X107267Y-689281D01*
Y-704516D01*
X112345Y-691820D02*
X114884Y-689281D01*
X119963D01*
X122502Y-691820D01*
Y-694359D01*
X119963Y-696898D01*
X117423D01*
X119963D01*
X122502Y-699438D01*
Y-701977D01*
X119963Y-704516D01*
X114884D01*
X112345Y-701977D01*
X447179Y-894165D02*
Y-878930D01*
X452257Y-884008D01*
X457336Y-878930D01*
Y-894165D01*
X472571D02*
X462414D01*
X472571Y-884008D01*
Y-881469D01*
X470032Y-878930D01*
X464953D01*
X462414Y-881469D01*
X448449Y-749385D02*
Y-734150D01*
X453527Y-739228D01*
X458606Y-734150D01*
Y-749385D01*
X463684D02*
X468762D01*
X466223D01*
Y-734150D01*
X463684Y-736689D01*
D11*
X129000Y-385800D02*
G03*
X129000Y-385800I-1500J0D01*
G01*
X152770Y-835656D02*
G03*
X152770Y-835656I-1500J0D01*
G01*
X217000Y-384500D02*
G03*
X217000Y-384500I-1000J0D01*
G01*
D12*
X112500Y-142500D02*
G03*
X112500Y-142500I-1000J0D01*
G01*
X647000Y-865366D02*
G03*
X647000Y-865366I-1000J0D01*
G01*
D13*
X607001Y-924955D02*
G03*
X607001Y-924955I-24000J0D01*
G01*
X607000Y-779956D02*
G03*
X607000Y-779956I-24000J0D01*
G01*
X1294000Y-34000D02*
G03*
X1294000Y-34000I-24000J0D01*
G01*
X1294001Y-586000D02*
G03*
X1294001Y-586000I-24000J0D01*
G01*
X76071Y-584709D02*
G03*
X76071Y-584709I-24000J0D01*
G01*
X74000Y-34000D02*
G03*
X74000Y-34000I-24000J0D01*
G01*
X267000Y-254500D02*
Y-226500D01*
X275000Y-254500D02*
Y-226500D01*
X267000D02*
X275000D01*
X267000Y-254500D02*
X275000D01*
X309500Y-301000D02*
Y-297000D01*
X297500Y-301000D02*
Y-297000D01*
X259000Y-301000D02*
Y-297000D01*
X271000Y-301000D02*
Y-297000D01*
X440000Y-258000D02*
Y-224000D01*
X390000Y-258000D02*
Y-224000D01*
Y-258000D02*
X440000D01*
X390000Y-224000D02*
X440000D01*
X97500Y-418500D02*
Y-378500D01*
Y-418500D02*
X151500D01*
Y-378500D01*
X97500D02*
X151500D01*
X103500Y-145500D02*
X137500D01*
Y-167500D02*
Y-145500D01*
X103500Y-167500D02*
X137500D01*
X103500D02*
Y-145500D01*
X127270Y-842956D02*
X181270D01*
X127270D02*
Y-802956D01*
X181270D01*
Y-842956D02*
Y-802956D01*
X270500Y-209500D02*
X274500D01*
X270500Y-197500D02*
X274500D01*
X360650Y-346500D02*
Y-342500D01*
X348650Y-346500D02*
Y-342500D01*
X459000Y-346500D02*
Y-342500D01*
X471000Y-346500D02*
Y-342500D01*
X433700Y-346500D02*
Y-342500D01*
X421700Y-346500D02*
Y-342500D01*
X269500Y-402500D02*
Y-398500D01*
X257500Y-402500D02*
Y-398500D01*
X298500Y-402500D02*
Y-398500D01*
X286500Y-402500D02*
Y-398500D01*
X224500Y-457500D02*
X228500D01*
X224500Y-445500D02*
X228500D01*
X236000Y-413500D02*
Y-410500D01*
X216000Y-413500D02*
Y-410500D01*
Y-386500D02*
Y-383500D01*
X236000Y-386500D02*
Y-383500D01*
X216000Y-413500D02*
X236000D01*
X216000Y-383500D02*
X236000D01*
X1240000Y-187000D02*
X1300000D01*
X1240000Y-127000D02*
X1300000D01*
X1240000Y-187000D02*
Y-127000D01*
X1300000Y-187000D02*
Y-127000D01*
X1240000Y-486000D02*
X1300000D01*
X1240000Y-426000D02*
X1300000D01*
X1240000Y-486000D02*
Y-426000D01*
X1300000Y-486000D02*
Y-426000D01*
X447000Y-520000D02*
Y-498000D01*
X446000Y-520000D02*
Y-498000D01*
X445000Y-520000D02*
Y-498000D01*
X444000Y-520000D02*
Y-498000D01*
X443000Y-520000D02*
Y-498000D01*
X442000Y-520000D02*
Y-498000D01*
X441000Y-520000D02*
Y-498000D01*
X485000Y-520000D02*
Y-498000D01*
X437000Y-520000D02*
X485000D01*
X437000Y-498000D02*
X485000D01*
X437000Y-520000D02*
Y-498000D01*
X654969Y-588670D02*
Y-535330D01*
X246029D02*
X654969D01*
X246029Y-588670D02*
X654969D01*
X246029D02*
Y-535330D01*
X620000Y-862366D02*
X654000D01*
X620000D02*
Y-840366D01*
X654000D01*
Y-862366D02*
Y-840366D01*
X652314Y-29330D02*
X1061254D01*
X218500Y-301000D02*
Y-297000D01*
X230500Y-301000D02*
Y-297000D01*
X384000Y-346500D02*
Y-342500D01*
X396000Y-346500D02*
Y-342500D01*
X544620Y-831396D02*
X548620D01*
X544620Y-843396D02*
X548620D01*
X574910Y-853366D02*
Y-849366D01*
X586910Y-853366D02*
Y-849366D01*
X506330Y-853366D02*
Y-849366D01*
X518330Y-853366D02*
Y-849366D01*
X544620Y-859336D02*
X548620D01*
X544620Y-871336D02*
X548620D01*
X654854Y-82670D02*
Y-29330D01*
X245914D02*
X654854D01*
X245914Y-82670D02*
X654854D01*
X245914D02*
Y-29330D01*
X1061254Y-82670D02*
Y-29330D01*
X652314Y-82670D02*
X1061254D01*
X652314D02*
Y-29330D01*
X1061719Y-588670D02*
Y-535330D01*
X652779D02*
X1061719D01*
X652779Y-588670D02*
X1061719D01*
X652779D02*
Y-535330D01*
D14*
X0Y-636000D02*
Y0D01*
X1320173D01*
X1320173Y-635510D01*
X0Y-636000D02*
X1320173Y-635510D01*
X395990Y-999956D02*
X770230D01*
Y-705616D01*
X770230Y-705616D02*
X770230Y-705616D01*
X395990Y-705616D02*
X770230D01*
X395990Y-999956D02*
Y-705616D01*
X540Y-647956D02*
X358270D01*
Y-999956D02*
Y-647956D01*
X540Y-999956D02*
X358270D01*
X540D02*
Y-647956D01*
X0Y-1000000D02*
X1320000D01*
Y0D01*
X0D02*
X1320000D01*
X0Y-1000000D02*
Y0D01*
D15*
X13000Y-362000D02*
X87000D01*
X13000Y-436000D02*
X87000D01*
X13000D02*
Y-362000D01*
X87000Y-436000D02*
Y-362000D01*
X13000Y-119000D02*
X87000D01*
X13000Y-193000D02*
X87000D01*
X13000D02*
Y-119000D01*
X87000Y-193000D02*
Y-119000D01*
X231226Y-785956D02*
X305226D01*
X231226Y-859956D02*
X305226D01*
X231226D02*
Y-785956D01*
X305226Y-859956D02*
Y-785956D01*
X682430Y-814366D02*
X756430D01*
X682430Y-888366D02*
X756430D01*
X682430D02*
Y-814366D01*
X756430Y-888366D02*
Y-814366D01*
M02*
