M48
;Layer_Color=9474304
;FILE_FORMAT=4:4
METRIC,LZ
;TYPE=PLATED
T1F00S00C0.2500
T2F00S00C0.3000
T3F00S00C0.5000
T4F00S00C0.8000
T5F00S00C1.0000
T6F00S00C1.5000
T7F00S00C2.2000
T8F00S00C2.7000
;TYPE=NON_PLATED
T10F00S00C3.2000
%
T01
X00613378Y-008572
X0063773Y-00863788
X00655Y-00863804
Y-00838912
X00637762
X00613378Y-00845516
X0018697Y-00810256
X0015427Y-00809956
Y-00822956
Y-00835956
X0012527Y-00822956
X0011527
X0012438Y-004113
X00124455Y-003985
Y-003855
X0009337Y-0041121
X001025Y-00168848
X0011977Y-00168832
X00119738Y-00143956
X001025
X00144122Y-0015056
Y-00162244
X00153455Y-003985
X00163455
T02
X00021Y-00979
X00046
X00071
X00096
X00121
X001085Y-00954
X000835
X000585
X000335
X00046Y-00929
X00071
X00096
X00121
X001085Y-00904
X000835
X000585
X000335
X00021Y-00879
X00046
X00071
X00096
X00121
X00021Y-00929
X00146Y-00979
X00171
X00196
X00221
X00246
X00271
X00296
X00321
X00346
X003335Y-00954
X003085
X002835
X002585
X002335
X002085
X001835
X00196Y-00929
X00221
X00246
X00271
X00296
X00321
X00346
X003335Y-00904
X003085
X002835
X002585
X002335
X002085
X001835
X00221Y-00879
X00246
X00271
X00296
X00321
X00346
X00421
X004335Y-00904
X004085
X00421Y-00929
X004335Y-00954
X004085
X00421Y-00979
X00446
X00471
X00496
X00521
X005085Y-00954
X004835
X004585
X005335
X00521Y-00929
X005335Y-00904
X005085
X005585
X00546Y-00929
X005585Y-00954
X00546Y-00979
X00621
X00646
X00671
X00696
X00721
X00746
X007335Y-00954
X007585
X00746Y-00929
X00721
X00696
X00671
X00646
X00621
X006085Y-00904
X006335
X006585
X006835
X007085
X007335
X007585
X007085Y-00954
X006835
X006585
X006335
X006085
X006335Y-00804
X006585
X007335
X007585
Y-00754
X007335
X007085
X006835
X00696Y-00729
X00721
X00746
X00546
Y-00779
X00521
X005335Y-00754
X005085
X00521Y-00729
X00496
X00421
X004085Y-00754
X004335
X00421Y-00779
X004335Y-00804
X004085
X00421Y-00829
X00446
X004335Y-00854
X004085
X004585
X003335
X00321Y-00829
X00296
Y-00779
X00271
X002835Y-00754
X003085
X003335
X00346Y-00779
X00321
X003335Y-00804
X00346Y-00829
X003335Y-00704
X003085
X002835
X00296Y-00679
X00321
X00346
X00271
X00246
X00221
X00196
X00171
X001835Y-00704
Y-00754
X002085
X00196Y-00779
X00171
X002085Y-00804
Y-00854
X001835
X001085
X000835
X000585
X000335
X00021Y-00829
X00046
X00071
X00096
X000835Y-00804
X000585
X000335
X00021Y-00779
X00046
X00071
X00096
X000835Y-00754
X001085
X00096Y-00729
X00071
X00046
X00021
X000335Y-00704
X000585
X000835
X00071Y-00679
X00096
X00121
Y-00729
X001085Y-00804
X000585Y-00754
X000335
X00046Y-00679
X00021
T03
X00202Y-00379
X0024706Y-003712
X003108Y-003905
X00311Y-004105
X00373Y-003545
X0044381Y-0038
X004275Y-00195
X003885Y-001955
X003015Y-002305
X002995Y-002475
X00244499Y-00282
X0028575Y-001665
X00286Y-001465
X00172Y-0015
Y-001625
T04
X004235Y-00509
X004985
T05
X00946149Y-005747
Y-005493
X00971549
X00996949
X01022349
X01047749
Y-005747
X01022349
X00996949
X00971549
X012475Y-004885
X012925
X00920749Y-005493
Y-005747
X00895349
X00869949
X00844549
X00819149
X00793749
X00768349
X00742949
X00717549
Y-005493
X00742949
X00768349
X00793749
X00819149
X00844549
X00869949
X00895349
X00692149Y-005493
Y-005747
X00666749Y-005747
Y-005493
X00640999
X00615599
X00590199
X00564799
Y-005747
X00590199
X00615599
X00640999
X00539399
Y-005493
X00513999
Y-005747
X00488599
X00463199
X00437799
X00412399
X00386999
X00361599
X00336199
X00310799
Y-005493
X00336199
X00361599
X00386999
X00412399
X00437799
X00463199
X00488599
X00285399Y-005493
Y-005747
X00259999Y-005747
Y-005493
X00259884Y-000687
X00285284Y-000687
X00310684Y-000687
X00336084
X00361484
X00386884
X00412284
X00437684
X00463084
X00488484
X00513884
X00539284
X00564684
X00590084
X00615484
X00640884
X00666284
X00691684Y-000687
X00717084Y-000687
X00742484
X00767884
X00793284
X00818684
X00844084
X00869484
X00894884
X00920284
X00945684
X00971084
X00996484
X01021884
X01047284
X012475Y-001245
X012925
Y-001895
X012475
Y-004235
X012925
X01047284Y-000433
X01021884
X00996484
X00971084
X00945684
X00920284
X00894884
X00869484
X00844084
X00818684
X00793284
X00767884
X00742484
X00717084
X00691684Y-000433
X00666284Y-000433
X00640884
X00615484
X00590084
X00564684
X00539284
X00513884
X00488484
X00463084
X00437684
X00412284
X00386884
X00361484
X00336084
X00310684
X00285284Y-000433
X00259884Y-000433
T06
X0069393Y-00876866
X0074493
Y-00825866
X0069393
X0071943Y-00851366
X00293726Y-00848456
Y-00797456
X00242726
Y-00848456
X00268226Y-00822956
X000755Y-004245
Y-003735
X000245
Y-004245
X0005Y-00399
X000755Y-001815
Y-001305
X000245
Y-001815
X0005Y-00156
T07
X01137Y-00553
Y-00476
X005395Y-00458
X006165
X006175Y-00311
X005405
X005425Y-00164
X006195
X009595
X010365
X01137Y-00136
X010345Y-00311
X009575
X009565Y-00458
X010335
X01137Y-00059
T08
X0046788Y-00925026
X0046915Y-00780246
T10
X00583Y-00924956
X0127Y-00586001
X00582999Y-00779957
X0005207Y-0058471
X01269999Y-00034001
X00049999
M30
