G04*
G04 #@! TF.GenerationSoftware,Altium Limited,Altium Designer,19.0.10 (269)*
G04*
G04 Layer_Physical_Order=4*
G04 Layer_Color=16711680*
%FSLAX44Y44*%
%MOMM*%
G71*
G01*
G75*
%ADD10C,0.2540*%
%ADD14C,0.5080*%
G04:AMPARAMS|DCode=17|XSize=1.1mm|YSize=1.35mm|CornerRadius=0.1375mm|HoleSize=0mm|Usage=FLASHONLY|Rotation=90.000|XOffset=0mm|YOffset=0mm|HoleType=Round|Shape=RoundedRectangle|*
%AMROUNDEDRECTD17*
21,1,1.1000,1.0750,0,0,90.0*
21,1,0.8250,1.3500,0,0,90.0*
1,1,0.2750,0.5375,0.4125*
1,1,0.2750,0.5375,-0.4125*
1,1,0.2750,-0.5375,-0.4125*
1,1,0.2750,-0.5375,0.4125*
%
%ADD17ROUNDEDRECTD17*%
G04:AMPARAMS|DCode=21|XSize=1.1mm|YSize=1.35mm|CornerRadius=0.1375mm|HoleSize=0mm|Usage=FLASHONLY|Rotation=0.000|XOffset=0mm|YOffset=0mm|HoleType=Round|Shape=RoundedRectangle|*
%AMROUNDEDRECTD21*
21,1,1.1000,1.0750,0,0,0.0*
21,1,0.8250,1.3500,0,0,0.0*
1,1,0.2750,0.4125,-0.5375*
1,1,0.2750,-0.4125,-0.5375*
1,1,0.2750,-0.4125,0.5375*
1,1,0.2750,0.4125,0.5375*
%
%ADD21ROUNDEDRECTD21*%
G04:AMPARAMS|DCode=24|XSize=2mm|YSize=0.6mm|CornerRadius=0.225mm|HoleSize=0mm|Usage=FLASHONLY|Rotation=270.000|XOffset=0mm|YOffset=0mm|HoleType=Round|Shape=RoundedRectangle|*
%AMROUNDEDRECTD24*
21,1,2.0000,0.1500,0,0,270.0*
21,1,1.5500,0.6000,0,0,270.0*
1,1,0.4500,-0.0750,-0.7750*
1,1,0.4500,-0.0750,0.7750*
1,1,0.4500,0.0750,0.7750*
1,1,0.4500,0.0750,-0.7750*
%
%ADD24ROUNDEDRECTD24*%
G04:AMPARAMS|DCode=25|XSize=0.75mm|YSize=0.3mm|CornerRadius=0.075mm|HoleSize=0mm|Usage=FLASHONLY|Rotation=180.000|XOffset=0mm|YOffset=0mm|HoleType=Round|Shape=RoundedRectangle|*
%AMROUNDEDRECTD25*
21,1,0.7500,0.1500,0,0,180.0*
21,1,0.6000,0.3000,0,0,180.0*
1,1,0.1500,-0.3000,0.0750*
1,1,0.1500,0.3000,0.0750*
1,1,0.1500,0.3000,-0.0750*
1,1,0.1500,-0.3000,-0.0750*
%
%ADD25ROUNDEDRECTD25*%
%ADD26O,4.5000X10.0000*%
%ADD27C,3.2000*%
%ADD28C,2.5000*%
%ADD29C,2.0000*%
G04:AMPARAMS|DCode=30|XSize=8mm|YSize=10mm|CornerRadius=2mm|HoleSize=0mm|Usage=FLASHONLY|Rotation=180.000|XOffset=0mm|YOffset=0mm|HoleType=Round|Shape=RoundedRectangle|*
%AMROUNDEDRECTD30*
21,1,8.0000,6.0000,0,0,180.0*
21,1,4.0000,10.0000,0,0,180.0*
1,1,4.0000,-2.0000,3.0000*
1,1,4.0000,2.0000,3.0000*
1,1,4.0000,2.0000,-3.0000*
1,1,4.0000,-2.0000,-3.0000*
%
%ADD30ROUNDEDRECTD30*%
G04:AMPARAMS|DCode=31|XSize=8mm|YSize=10mm|CornerRadius=2mm|HoleSize=0mm|Usage=FLASHONLY|Rotation=90.000|XOffset=0mm|YOffset=0mm|HoleType=Round|Shape=RoundedRectangle|*
%AMROUNDEDRECTD31*
21,1,8.0000,6.0000,0,0,90.0*
21,1,4.0000,10.0000,0,0,90.0*
1,1,4.0000,3.0000,2.0000*
1,1,4.0000,3.0000,-2.0000*
1,1,4.0000,-3.0000,-2.0000*
1,1,4.0000,-3.0000,2.0000*
%
%ADD31ROUNDEDRECTD31*%
%ADD32C,4.5000*%
%ADD33C,0.8000*%
%ADD34C,0.7000*%
%ADD35C,0.8500*%
%ADD36C,1.0160*%
%ADD37C,0.7620*%
%ADD38C,1.1430*%
%ADD82C,1.2700*%
G36*
X767406Y-997132D02*
X398814D01*
Y-864366D01*
Y-708440D01*
X767406Y-708440D01*
Y-997132D01*
D02*
G37*
G36*
X358000Y-997451D02*
X2549D01*
Y-648000D01*
X358000D01*
Y-997451D01*
D02*
G37*
G36*
X203001Y-145768D02*
X203000Y-166768D01*
X202500Y-167268D01*
X198500D01*
X196000Y-164768D01*
X196000Y-145768D01*
X196500Y-145268D01*
X202500Y-145268D01*
X203001Y-145768D01*
D02*
G37*
%LPC*%
G36*
X582999Y-762372D02*
X579569Y-762710D01*
X576270Y-763711D01*
X573230Y-765336D01*
X570565Y-767523D01*
X568378Y-770187D01*
X566753Y-773227D01*
X565752Y-776526D01*
X565415Y-779957D01*
X565752Y-783387D01*
X566753Y-786686D01*
X568378Y-789726D01*
X570565Y-792391D01*
X573230Y-794578D01*
X576270Y-796203D01*
X579569Y-797204D01*
X582999Y-797542D01*
X586430Y-797204D01*
X589729Y-796203D01*
X592769Y-794578D01*
X595433Y-792391D01*
X597620Y-789726D01*
X599245Y-786686D01*
X600246Y-783387D01*
X600584Y-779957D01*
X600246Y-776526D01*
X599245Y-773227D01*
X597620Y-770187D01*
X595433Y-767523D01*
X592769Y-765336D01*
X589729Y-763711D01*
X586430Y-762710D01*
X582999Y-762372D01*
D02*
G37*
G36*
X469150Y-756130D02*
X464445Y-756593D01*
X459921Y-757966D01*
X455752Y-760194D01*
X452097Y-763193D01*
X449098Y-766848D01*
X446870Y-771017D01*
X445497Y-775541D01*
X445034Y-780246D01*
X445497Y-784951D01*
X446870Y-789475D01*
X449098Y-793644D01*
X452097Y-797299D01*
X455752Y-800298D01*
X459921Y-802526D01*
X464445Y-803899D01*
X469150Y-804362D01*
X473855Y-803899D01*
X478379Y-802526D01*
X482548Y-800298D01*
X486203Y-797299D01*
X489202Y-793644D01*
X491430Y-789475D01*
X492803Y-784951D01*
X493266Y-780246D01*
X492803Y-775541D01*
X491430Y-771017D01*
X489202Y-766848D01*
X486203Y-763193D01*
X482548Y-760194D01*
X478379Y-757966D01*
X473855Y-756593D01*
X469150Y-756130D01*
D02*
G37*
G36*
X613378Y-840418D02*
X611427Y-840806D01*
X609773Y-841911D01*
X608668Y-843565D01*
X608280Y-845516D01*
X608668Y-847467D01*
X609773Y-849121D01*
X611427Y-850226D01*
X613378Y-850614D01*
X615329Y-850226D01*
X616983Y-849121D01*
X618088Y-847467D01*
X618476Y-845516D01*
X618088Y-843565D01*
X616983Y-841911D01*
X615329Y-840806D01*
X613378Y-840418D01*
D02*
G37*
G36*
Y-852102D02*
X611427Y-852490D01*
X609773Y-853595D01*
X608668Y-855249D01*
X608280Y-857200D01*
X608668Y-859151D01*
X609773Y-860805D01*
X611427Y-861910D01*
X613378Y-862298D01*
X615329Y-861910D01*
X616983Y-860805D01*
X618088Y-859151D01*
X618476Y-857200D01*
X618088Y-855249D01*
X616983Y-853595D01*
X615329Y-852490D01*
X613378Y-852102D01*
D02*
G37*
G36*
X719430Y-837245D02*
X715775Y-837726D01*
X712370Y-839137D01*
X709445Y-841381D01*
X707201Y-844306D01*
X705790Y-847711D01*
X705309Y-851366D01*
X705790Y-855021D01*
X707201Y-858426D01*
X709445Y-861351D01*
X712370Y-863595D01*
X715775Y-865006D01*
X719430Y-865487D01*
X723085Y-865006D01*
X726490Y-863595D01*
X729415Y-861351D01*
X731659Y-858426D01*
X733070Y-855021D01*
X733551Y-851366D01*
X733070Y-847711D01*
X731659Y-844306D01*
X729415Y-841381D01*
X726490Y-839137D01*
X723085Y-837726D01*
X719430Y-837245D01*
D02*
G37*
G36*
X583000Y-907371D02*
X579569Y-907709D01*
X576271Y-908710D01*
X573231Y-910335D01*
X570566Y-912522D01*
X568379Y-915186D01*
X566754Y-918227D01*
X565753Y-921525D01*
X565415Y-924956D01*
X565753Y-928387D01*
X566754Y-931685D01*
X568379Y-934725D01*
X570566Y-937390D01*
X573231Y-939577D01*
X576271Y-941202D01*
X579569Y-942203D01*
X583000Y-942541D01*
X586431Y-942203D01*
X589729Y-941202D01*
X592770Y-939577D01*
X595434Y-937390D01*
X597621Y-934725D01*
X599246Y-931685D01*
X600247Y-928387D01*
X600585Y-924956D01*
X600247Y-921525D01*
X599246Y-918227D01*
X597621Y-915186D01*
X595434Y-912522D01*
X592770Y-910335D01*
X589729Y-908710D01*
X586431Y-907709D01*
X583000Y-907371D01*
D02*
G37*
G36*
X467880Y-900910D02*
X463175Y-901373D01*
X458651Y-902746D01*
X454482Y-904974D01*
X450827Y-907973D01*
X447828Y-911628D01*
X445600Y-915797D01*
X444227Y-920321D01*
X443764Y-925026D01*
X444227Y-929731D01*
X445600Y-934255D01*
X447828Y-938424D01*
X450827Y-942079D01*
X454482Y-945078D01*
X458651Y-947306D01*
X463175Y-948679D01*
X467880Y-949142D01*
X472585Y-948679D01*
X477109Y-947306D01*
X481278Y-945078D01*
X484933Y-942079D01*
X487932Y-938424D01*
X490160Y-934255D01*
X491533Y-929731D01*
X491996Y-925026D01*
X491533Y-920321D01*
X490160Y-915797D01*
X487932Y-911628D01*
X484933Y-907973D01*
X481278Y-904974D01*
X477109Y-902746D01*
X472585Y-901373D01*
X467880Y-900910D01*
D02*
G37*
G36*
X152610Y-677900D02*
X147905Y-678363D01*
X143381Y-679736D01*
X139212Y-681964D01*
X135557Y-684963D01*
X132558Y-688618D01*
X130330Y-692787D01*
X128957Y-697311D01*
X128494Y-702016D01*
Y-757016D01*
X128957Y-761721D01*
X130330Y-766245D01*
X132558Y-770414D01*
X135557Y-774069D01*
X139212Y-777068D01*
X143381Y-779296D01*
X147905Y-780669D01*
X152610Y-781132D01*
X157315Y-780669D01*
X161839Y-779296D01*
X166008Y-777068D01*
X169663Y-774069D01*
X172662Y-770414D01*
X174890Y-766245D01*
X176263Y-761721D01*
X176726Y-757016D01*
Y-702016D01*
X176263Y-697311D01*
X174890Y-692787D01*
X172662Y-688618D01*
X169663Y-684963D01*
X166008Y-681964D01*
X161839Y-679736D01*
X157315Y-678363D01*
X152610Y-677900D01*
D02*
G37*
G36*
X268226Y-808835D02*
X264571Y-809316D01*
X261166Y-810727D01*
X258241Y-812971D01*
X255997Y-815896D01*
X254586Y-819301D01*
X254105Y-822956D01*
X254586Y-826611D01*
X255997Y-830016D01*
X258241Y-832941D01*
X261166Y-835185D01*
X264571Y-836596D01*
X268226Y-837077D01*
X271881Y-836596D01*
X275286Y-835185D01*
X278211Y-832941D01*
X280455Y-830016D01*
X281866Y-826611D01*
X282347Y-822956D01*
X281866Y-819301D01*
X280455Y-815896D01*
X278211Y-812971D01*
X275286Y-810727D01*
X271881Y-809316D01*
X268226Y-808835D01*
D02*
G37*
G36*
X152610Y-864760D02*
X147905Y-865223D01*
X143381Y-866596D01*
X139212Y-868824D01*
X135557Y-871823D01*
X132558Y-875478D01*
X130330Y-879647D01*
X128957Y-884171D01*
X128494Y-888876D01*
Y-943876D01*
X128957Y-948581D01*
X130330Y-953105D01*
X132558Y-957274D01*
X135557Y-960929D01*
X139212Y-963928D01*
X143381Y-966156D01*
X147905Y-967529D01*
X152610Y-967992D01*
X157315Y-967529D01*
X161839Y-966156D01*
X166008Y-963928D01*
X169663Y-960929D01*
X172662Y-957274D01*
X174890Y-953105D01*
X176263Y-948581D01*
X176726Y-943876D01*
Y-888876D01*
X176263Y-884171D01*
X174890Y-879647D01*
X172662Y-875478D01*
X169663Y-871823D01*
X166008Y-868824D01*
X161839Y-866596D01*
X157315Y-865223D01*
X152610Y-864760D01*
D02*
G37*
%LPD*%
D10*
X216598Y-163768D02*
X239650Y-186820D01*
X209000Y-163768D02*
X216598D01*
X227500Y-166000D02*
X238500D01*
X209000Y-158732D02*
X220232D01*
X199499Y-156267D02*
X202000Y-158768D01*
X209000D01*
X160000Y-178500D02*
X169500D01*
X184232Y-163768D01*
X190000D01*
X227500Y-146500D02*
X238500D01*
X220232Y-153768D02*
X227500Y-146500D01*
X209000Y-153768D02*
X220232D01*
Y-158732D02*
X227500Y-166000D01*
X217500Y-145768D02*
Y-122768D01*
X214500Y-148768D02*
X217500Y-145768D01*
X209500Y-148768D02*
X214500D01*
X180000Y-146168D02*
Y-122368D01*
Y-146168D02*
X182600Y-148768D01*
X172000Y-150000D02*
X175768Y-153768D01*
X172000Y-150428D02*
Y-150000D01*
X175768Y-153768D02*
X190000D01*
X175768Y-158732D02*
X190000D01*
X172000Y-162500D02*
X175768Y-158732D01*
X182600Y-148768D02*
X187600D01*
X180000Y-122368D02*
X188500Y-113868D01*
X208500Y-113768D02*
Y-103768D01*
X188500Y-113868D02*
Y-103768D01*
X208500Y-113768D02*
X217500Y-122768D01*
D14*
X0Y-1000000D02*
X1320000D01*
Y0D01*
X0D02*
X1320000D01*
X0Y-1000000D02*
Y0D01*
D17*
X238500Y-166500D02*
D03*
Y-146500D02*
D03*
X267500Y-166500D02*
D03*
Y-146500D02*
D03*
D21*
X208700Y-100920D02*
D03*
X188700D02*
D03*
D24*
X199499Y-156267D02*
D03*
D25*
X209000Y-163768D02*
D03*
Y-158768D02*
D03*
Y-153768D02*
D03*
Y-148768D02*
D03*
X190000D02*
D03*
Y-153768D02*
D03*
Y-158768D02*
D03*
Y-163768D02*
D03*
D26*
X152610Y-729516D02*
D03*
Y-916376D02*
D03*
D27*
X583000Y-924956D02*
D03*
X582999Y-779957D02*
D03*
X1269999Y-34001D02*
D03*
X1270000Y-586001D02*
D03*
X52070Y-584710D02*
D03*
X49999Y-34001D02*
D03*
D28*
X75500Y-373500D02*
D03*
Y-424500D02*
D03*
X24500Y-373500D02*
D03*
Y-424500D02*
D03*
X50000Y-399000D02*
D03*
X75500Y-130500D02*
D03*
Y-181500D02*
D03*
X24500Y-130500D02*
D03*
Y-181500D02*
D03*
X50000Y-156000D02*
D03*
X293726Y-797456D02*
D03*
Y-848456D02*
D03*
X242726Y-797456D02*
D03*
Y-848456D02*
D03*
X268226Y-822956D02*
D03*
X744930Y-825866D02*
D03*
Y-876866D02*
D03*
X693930Y-825866D02*
D03*
Y-876866D02*
D03*
X719430Y-851366D02*
D03*
D29*
X1292500Y-124500D02*
D03*
X1247500D02*
D03*
X1292500Y-189500D02*
D03*
X1247500D02*
D03*
X1292500Y-423500D02*
D03*
X1247500D02*
D03*
X1292500Y-488500D02*
D03*
X1247500D02*
D03*
X498500Y-509000D02*
D03*
X423500D02*
D03*
X539399Y-549300D02*
D03*
X513999D02*
D03*
X564799D02*
D03*
X590199D02*
D03*
X640999D02*
D03*
X615599D02*
D03*
X463199Y-574700D02*
D03*
X488599D02*
D03*
X437799D02*
D03*
X412399D02*
D03*
X336199D02*
D03*
X361599D02*
D03*
X259999D02*
D03*
X285399Y-574700D02*
D03*
X310799Y-574700D02*
D03*
X386999D02*
D03*
X539399D02*
D03*
X513999D02*
D03*
X564799D02*
D03*
X590199D02*
D03*
X640999D02*
D03*
X615599D02*
D03*
X386999Y-549300D02*
D03*
X310799D02*
D03*
X285399Y-549300D02*
D03*
X259999Y-549300D02*
D03*
X361599D02*
D03*
X336199D02*
D03*
X412399D02*
D03*
X437799D02*
D03*
X488599D02*
D03*
X463199D02*
D03*
X539284Y-43300D02*
D03*
X513884D02*
D03*
X564684D02*
D03*
X590084D02*
D03*
X640884D02*
D03*
X615484D02*
D03*
X463084Y-68700D02*
D03*
X488484D02*
D03*
X437684D02*
D03*
X412284D02*
D03*
X336084D02*
D03*
X361484D02*
D03*
X259884D02*
D03*
X285284Y-68700D02*
D03*
X310684Y-68700D02*
D03*
X386884D02*
D03*
X539284D02*
D03*
X513884D02*
D03*
X564684D02*
D03*
X590084D02*
D03*
X640884D02*
D03*
X615484D02*
D03*
X386884Y-43300D02*
D03*
X310684D02*
D03*
X285284Y-43300D02*
D03*
X259884Y-43300D02*
D03*
X361484D02*
D03*
X336084D02*
D03*
X412284D02*
D03*
X437684D02*
D03*
X488484D02*
D03*
X463084D02*
D03*
X945684D02*
D03*
X920284D02*
D03*
X971084D02*
D03*
X996484D02*
D03*
X1047284D02*
D03*
X1021884D02*
D03*
X869484Y-68700D02*
D03*
X894884D02*
D03*
X844084D02*
D03*
X818684D02*
D03*
X742484D02*
D03*
X767884D02*
D03*
X666284D02*
D03*
X691684Y-68700D02*
D03*
X717084Y-68700D02*
D03*
X793284D02*
D03*
X945684D02*
D03*
X920284D02*
D03*
X971084D02*
D03*
X996484D02*
D03*
X1047284D02*
D03*
X1021884D02*
D03*
X793284Y-43300D02*
D03*
X717084D02*
D03*
X691684Y-43300D02*
D03*
X666284Y-43300D02*
D03*
X767884D02*
D03*
X742484D02*
D03*
X818684D02*
D03*
X844084D02*
D03*
X894884D02*
D03*
X869484D02*
D03*
X946149Y-549300D02*
D03*
X920749D02*
D03*
X971549D02*
D03*
X996949D02*
D03*
X1047749D02*
D03*
X1022349D02*
D03*
X869949Y-574700D02*
D03*
X895349D02*
D03*
X844549D02*
D03*
X819149D02*
D03*
X742949D02*
D03*
X768349D02*
D03*
X666749D02*
D03*
X692149Y-574700D02*
D03*
X717549Y-574700D02*
D03*
X793749D02*
D03*
X946149D02*
D03*
X920749D02*
D03*
X971549D02*
D03*
X996949D02*
D03*
X1047749D02*
D03*
X1022349D02*
D03*
X793749Y-549300D02*
D03*
X717549D02*
D03*
X692149Y-549300D02*
D03*
X666749Y-549300D02*
D03*
X768349D02*
D03*
X742949D02*
D03*
X819149D02*
D03*
X844549D02*
D03*
X895349D02*
D03*
X869949D02*
D03*
D30*
X599500Y-164000D02*
D03*
X562500D02*
D03*
X979500D02*
D03*
X1016500D02*
D03*
X1013500Y-458000D02*
D03*
X976500D02*
D03*
X559500D02*
D03*
X596500D02*
D03*
X560500Y-311000D02*
D03*
X597500D02*
D03*
X1014500D02*
D03*
X977500D02*
D03*
D31*
X1137000Y-533000D02*
D03*
Y-496000D02*
D03*
Y-79000D02*
D03*
Y-116000D02*
D03*
D32*
X469150Y-780246D02*
D03*
X467880Y-925026D02*
D03*
D33*
X71000Y-779000D02*
D03*
X608500Y-904000D02*
D03*
X271000Y-979000D02*
D03*
X671000D02*
D03*
X33500Y-704000D02*
D03*
X221000Y-929000D02*
D03*
X308500Y-904000D02*
D03*
X83500Y-954000D02*
D03*
X733500Y-804000D02*
D03*
X96000Y-979000D02*
D03*
X283500Y-704000D02*
D03*
X433500Y-854000D02*
D03*
X521000Y-979000D02*
D03*
X71000Y-729000D02*
D03*
X296000Y-779000D02*
D03*
X333500Y-904000D02*
D03*
X683500Y-754000D02*
D03*
X433500Y-904000D02*
D03*
X333500Y-854000D02*
D03*
X633500Y-804000D02*
D03*
X121000Y-679000D02*
D03*
X258500Y-954000D02*
D03*
X721000Y-979000D02*
D03*
X33500Y-754000D02*
D03*
X408500Y-904000D02*
D03*
X71000Y-929000D02*
D03*
X171000Y-779000D02*
D03*
X346000Y-929000D02*
D03*
X433500Y-804000D02*
D03*
X96000Y-929000D02*
D03*
X446000Y-979000D02*
D03*
X308500Y-704000D02*
D03*
X58500Y-804000D02*
D03*
X608500Y-954000D02*
D03*
X271000Y-779000D02*
D03*
X346000Y-879000D02*
D03*
X308500Y-954000D02*
D03*
X83500Y-854000D02*
D03*
X208500Y-904000D02*
D03*
X633500Y-954000D02*
D03*
X21000Y-779000D02*
D03*
X208500Y-754000D02*
D03*
X646000Y-929000D02*
D03*
X558500Y-954000D02*
D03*
X421000Y-879000D02*
D03*
X758500Y-804000D02*
D03*
Y-754000D02*
D03*
X146000Y-979000D02*
D03*
X171000D02*
D03*
X433500Y-954000D02*
D03*
X421000Y-929000D02*
D03*
X471000Y-979000D02*
D03*
X658500Y-954000D02*
D03*
X708500Y-904000D02*
D03*
X21000Y-979000D02*
D03*
X708500Y-754000D02*
D03*
X96000Y-829000D02*
D03*
X271000Y-879000D02*
D03*
X196000Y-679000D02*
D03*
X233500Y-954000D02*
D03*
X746000Y-929000D02*
D03*
X521000Y-729000D02*
D03*
X196000Y-979000D02*
D03*
X483500Y-954000D02*
D03*
X221000Y-979000D02*
D03*
X408500Y-854000D02*
D03*
X533500Y-904000D02*
D03*
X546000Y-779000D02*
D03*
X83500Y-754000D02*
D03*
X283500Y-904000D02*
D03*
X333500Y-804000D02*
D03*
X233500Y-904000D02*
D03*
X296000Y-829000D02*
D03*
X521000Y-779000D02*
D03*
X733500Y-954000D02*
D03*
X208500Y-804000D02*
D03*
X721000Y-729000D02*
D03*
X758500Y-904000D02*
D03*
X183500Y-954000D02*
D03*
X71000Y-679000D02*
D03*
X221000Y-879000D02*
D03*
X408500Y-954000D02*
D03*
X183500Y-704000D02*
D03*
X208500Y-954000D02*
D03*
X183500Y-904000D02*
D03*
X171000Y-679000D02*
D03*
X321000Y-829000D02*
D03*
X33500Y-854000D02*
D03*
X96000Y-729000D02*
D03*
X183500Y-854000D02*
D03*
X408500Y-754000D02*
D03*
X283500D02*
D03*
X721000Y-929000D02*
D03*
X433500Y-754000D02*
D03*
X108500Y-954000D02*
D03*
X21000Y-879000D02*
D03*
X96000Y-679000D02*
D03*
X296000Y-929000D02*
D03*
X108500Y-754000D02*
D03*
X121000Y-879000D02*
D03*
X221000Y-679000D02*
D03*
X58500Y-854000D02*
D03*
X46000Y-879000D02*
D03*
X208500Y-854000D02*
D03*
X33500Y-904000D02*
D03*
X246000Y-929000D02*
D03*
X46000Y-679000D02*
D03*
X533500Y-754000D02*
D03*
X321000Y-679000D02*
D03*
X621000Y-929000D02*
D03*
X346000Y-679000D02*
D03*
X333500Y-954000D02*
D03*
X96000Y-779000D02*
D03*
X683500Y-904000D02*
D03*
X71000Y-829000D02*
D03*
X346000D02*
D03*
X108500Y-904000D02*
D03*
X658500D02*
D03*
X83500Y-804000D02*
D03*
X733500Y-754000D02*
D03*
X496000Y-979000D02*
D03*
X321000Y-929000D02*
D03*
X308500Y-754000D02*
D03*
X46000Y-729000D02*
D03*
X546000D02*
D03*
X258500Y-904000D02*
D03*
X183500Y-754000D02*
D03*
X458500Y-954000D02*
D03*
X21000Y-829000D02*
D03*
X121000Y-729000D02*
D03*
X346000Y-779000D02*
D03*
X683500Y-954000D02*
D03*
X546000Y-979000D02*
D03*
X71000Y-879000D02*
D03*
X671000Y-929000D02*
D03*
X546000D02*
D03*
X558500Y-904000D02*
D03*
X421000Y-729000D02*
D03*
X33500Y-954000D02*
D03*
X108500Y-804000D02*
D03*
X246000Y-679000D02*
D03*
X283500Y-954000D02*
D03*
X46000Y-979000D02*
D03*
X758500Y-954000D02*
D03*
X83500Y-704000D02*
D03*
X696000Y-979000D02*
D03*
X271000Y-929000D02*
D03*
X408500Y-804000D02*
D03*
X508500Y-904000D02*
D03*
X658500Y-804000D02*
D03*
X58500Y-904000D02*
D03*
X508500Y-954000D02*
D03*
X621000Y-979000D02*
D03*
X746000Y-729000D02*
D03*
X121000Y-979000D02*
D03*
X321000D02*
D03*
X421000Y-829000D02*
D03*
X58500Y-704000D02*
D03*
X646000Y-979000D02*
D03*
X496000Y-729000D02*
D03*
X46000Y-779000D02*
D03*
X21000Y-679000D02*
D03*
X296000Y-979000D02*
D03*
X196000Y-779000D02*
D03*
X508500Y-754000D02*
D03*
X296000Y-679000D02*
D03*
X421000Y-979000D02*
D03*
X296000Y-879000D02*
D03*
X246000D02*
D03*
X708500Y-954000D02*
D03*
X533500D02*
D03*
X333500Y-704000D02*
D03*
X121000Y-929000D02*
D03*
X271000Y-679000D02*
D03*
X46000Y-929000D02*
D03*
X696000D02*
D03*
X33500Y-804000D02*
D03*
X58500Y-754000D02*
D03*
X458500Y-854000D02*
D03*
X46000Y-829000D02*
D03*
X446000D02*
D03*
X21000Y-729000D02*
D03*
X696000D02*
D03*
X108500Y-854000D02*
D03*
X421000Y-779000D02*
D03*
X96000Y-879000D02*
D03*
X633500Y-904000D02*
D03*
X196000Y-929000D02*
D03*
X58500Y-954000D02*
D03*
X521000Y-929000D02*
D03*
X346000Y-979000D02*
D03*
X21000Y-929000D02*
D03*
X83500Y-904000D02*
D03*
X321000Y-779000D02*
D03*
Y-879000D02*
D03*
X333500Y-754000D02*
D03*
X71000Y-979000D02*
D03*
X733500Y-904000D02*
D03*
X746000Y-979000D02*
D03*
X246000D02*
D03*
D34*
X153455Y-398500D02*
D03*
X124380Y-411300D02*
D03*
X93370Y-411210D02*
D03*
X163455Y-398500D02*
D03*
X102500Y-143956D02*
D03*
X119738D02*
D03*
X119770Y-168832D02*
D03*
X102500Y-168848D02*
D03*
X124455Y-398500D02*
D03*
Y-385500D02*
D03*
X144122Y-150560D02*
D03*
Y-162244D02*
D03*
X613378Y-857200D02*
D03*
Y-845516D02*
D03*
X637762Y-838912D02*
D03*
X655000D02*
D03*
Y-863804D02*
D03*
X637730Y-863788D02*
D03*
X115270Y-822956D02*
D03*
X125270D02*
D03*
X154270Y-835956D02*
D03*
Y-822956D02*
D03*
Y-809956D02*
D03*
X186970Y-810256D02*
D03*
D35*
X247060Y-371200D02*
D03*
X443810Y-380000D02*
D03*
X388500Y-195500D02*
D03*
X427500Y-195000D02*
D03*
X299500Y-247500D02*
D03*
X301500Y-230500D02*
D03*
X244499Y-282000D02*
D03*
X373000Y-354500D02*
D03*
X311000Y-410500D02*
D03*
X310800Y-390500D02*
D03*
X285750Y-166500D02*
D03*
X286000Y-146500D02*
D03*
X202000Y-379000D02*
D03*
X172000Y-150000D02*
D03*
Y-162500D02*
D03*
D36*
X1022350Y-50040D02*
Y-33006D01*
X1012344Y-23000D02*
X1022350Y-33006D01*
X231000Y-23000D02*
X1012344Y-23000D01*
X438150Y-97710D02*
Y-75440D01*
X327570Y-208290D02*
X438150Y-97710D01*
X290650Y-208290D02*
X327570D01*
X270110Y-228830D02*
X290650Y-208290D01*
X270110Y-295430D02*
Y-228830D01*
X247060Y-318480D02*
X270110Y-295430D01*
X247060Y-371200D02*
Y-318480D01*
X267500Y-166500D02*
X285750D01*
X267500D02*
X268000Y-167000D01*
X267500Y-146500D02*
X286000D01*
X160000Y-337000D02*
X202000Y-379000D01*
X160000Y-337000D02*
Y-178500D01*
Y-94000D01*
X231000Y-23000D01*
X238501Y-146500D02*
X267500D01*
X238500Y-166500D02*
X267500D01*
X498500Y-207500D02*
X542000Y-164000D01*
X498500Y-509000D02*
Y-207500D01*
X542000Y-164000D02*
X542500D01*
X1247500Y-488500D02*
Y-423500D01*
X793750Y-545340D02*
Y-489250D01*
X887000Y-396000D01*
X1108000D01*
X1135500Y-423500D01*
X1246500D01*
X259350Y-68440D02*
Y-43040D01*
D37*
X154270Y-822956D02*
X218270D01*
X125270D02*
X154270D01*
X122270D02*
X125270D01*
X218270D02*
X243770Y-848456D01*
D38*
X514350Y-96289D02*
Y-75440D01*
X477750Y-132889D02*
X514350Y-96289D01*
X477750Y-346060D02*
Y-132889D01*
X443810Y-380000D02*
X477750Y-346060D01*
X309150Y-230500D02*
X341500Y-262850D01*
X301500Y-230500D02*
X309150D01*
X341500Y-287000D02*
Y-262850D01*
Y-287000D02*
X373000Y-318500D01*
Y-354500D02*
Y-318500D01*
X260000Y-570740D02*
Y-545340D01*
Y-525500D01*
X276500Y-509000D01*
X431500D01*
X1047750Y-50040D02*
X1049348D01*
D82*
X296350Y-186820D02*
X309700Y-173470D01*
X239650Y-186820D02*
X296350D01*
X309700Y-173470D02*
Y-127760D01*
X285750Y-103810D02*
X309700Y-127760D01*
X285750Y-103810D02*
Y-75440D01*
M02*
